@startuml

    !includesub ../../CERIF-Core/diagrams/core.puml!common
    !includesub ../../CERIF-Core/diagrams/core.puml!Agent
    !includesub ../../CERIF-Core/diagrams/core.puml!Person
    !includesub ../../CERIF-Core/diagrams/core.puml!Group_or_Organisation_Unit
    !includesub ../../CERIF-Core/diagrams/core.puml!Organisation_Unit
    !includesub ../../CERIF-Core/diagrams/core.puml!Group
    !includesub ../../CERIF-Core/diagrams/core.puml!Resource
    !includesub ../../CERIF-Core/diagrams/core.puml!Document
    !includesub ../../CERIF-Core/diagrams/core.puml!Document_isa_Resource
    !includesub ../../CERIF-Core/diagrams/core.puml!Activity
    !includesub ../../CERIF-Core/diagrams/core.puml!Contribution
    !includesub ../../CERIF-Core/diagrams/core.puml!Contribution_to_Document
    !includesub ../../CERIF-Core/diagrams/core.puml!Contribution_Statement
    !includesub ../../CERIF-Core/diagrams/core.puml!Publication_Channel
    !includesub ../../CERIF-Core/diagrams/core.puml!Event
    !includesub ../../CERIF-Core/diagrams/core.puml!Infrastructure
    !includesub ../../CERIF-Core/diagrams/core.puml!Date_Range


    !startsub Scholarly_Publication
        class "Scholarly_Publication" #ddeedd {
        }
    !endsub

    !startsub Scholarly_Publication
        "Document" <|-- "Scholarly_Publication"
    !endsub

    !startsub Scholarly_Publication_Accessibility_Specification
        class "Scholarly_Publication_Accessibility_Specification" #ddeedd {
        }
    !endsub

    !startsub Scholarly_Publication_Accessibility_Specification
        "Scholarly_Publication" *-r- "0..*" "Scholarly_Publication_Accessibility_Specification" : has access >
    !endsub

    !startsub Authorship
        class "Authorship" #ddeedd {
            correspondingAuthorFlag : Boolean
        }
    !endsub

    !startsub Authorship
        "Authorship" --o "Scholarly_Publication"
    !endsub

    !startsub Authorship
        "Contribution_to_Document" <|-- "Authorship"
    !endsub

    !startsub Authorship
        "Scholarly_Publication" "0..* authoredDocuments" o-- "0..* authors" "Agent"
    !endsub

    !startsub Authorship
        "Authorship" "0..*" --o "0..1 author" "Agent"
    !endsub

    !startsub COAR_Accessibility_Specification
        class "COAR_Accessibility_Specification_v_1_0" #ddeedd

        class "Open_Access_COAR_Accessibility_Specification_v_1_0" #ddeedd

        class "Restricted_Access_COAR_Accessibility_Specification_v_1_0" #ddeedd

        class "Metadata_Only_Access_COAR_Accessibility_Specification_v_1_0" #ddeedd

        class "Embargoed_Access_COAR_Accessibility_Specification_v_1_0" #ddeedd {
            embargoEndDate : Date
        }
    !endsub

    !startsub Publication_Series
        class "Publication_Series" #ddeedd {
            ISSN : ISSN
            eISSN : ISSN
        }

        "Publication_Channel" <|-- "Publication_Series"
    !endsub

    !startsub Journal
        class "Journal" #ddeedd {
            startDate : Date
            endDate : Date
        }

        "Publication_Series" <|-- "Journal"

    !endsub

    !startsub Books_Series
        class "Books_Series" #ddeedd {
        }

        "Publication_Series" <|-- "Books_Series"
    !endsub

    !startsub Book
        class "Book" #ddeedd {
            ISBN : ISBN
            eISBN : ISBN
        }

        "Scholarly_Publication" <|-- "Book"

        class "Monograph" #ddeedd {
        }

        "Book" <|-- "Monograph"

        class "Book_of_Chapters" #ddeedd {
        }

        "Book" <|-- "Book_of_Chapters"

        class "Proceedings" #ddeedd {
        }

        "Book" <|-- "Proceedings"

        "Proceedings" *-- "0..1" "Event" : hasEvent >


    !endsub

    !startsub Article
        class "Article" #ddeedd {
        }

        "Scholarly_Publication" <|-- "Article"

        class "Book_Chapter" #ddeedd {
        }

        "Article" <|-- "Book_Chapter"

        class "Conference_Paper" #ddeedd {
        }

        "Article" <|-- "Conference_Paper"

         class "Journal_Article" #ddeedd {
         }

         "Article" <|-- "Journal_Article"

         class "Conference_Abstract" #ddeedd {
         }

         "Article" <|-- "Conference_Abstract"

         class "Presentation" #ddeedd {
         }

         "Scholarly_Publication" <|-- "Presentation"

         class "Preface" #ddeedd {
         }

         "Article" <|-- "Preface"

         class "Correction" #ddeedd {
         }

         "Article" <|-- "Correction"

         class "Comment" #ddeedd {
         }

         "Article" <|-- "Comment"

         class "Review" #ddeedd {
         }

         "Scholarly_Publication" <|-- "Comment"

         "Article" "0..*" -- "0..1" "Book" : is part of >

         "Comment" "0..*" -- "1..1" "Document" : for >

         "Correction" "0..*" -- "1..1" "Document" : for >

         "Review" "0..*" -- "1..1" "Document" : for >

    !endsub

    class "Editorship" #ddeedd {
        leadingEditorFlag : Boolean
    }
    class "Publishership" #ddeedd {
        leadingPublisherFlag : Boolean
    }

    !startsub CRediT
        class "CRediT_Contribution_Statement" #ddeedd {
        }
        enum "CRediT_Degree_of_Contribution" #ddeedd {
            Lead
            Supporting
            Equal
        }
        enum "CRediT_Role_Type" #ddeedd {
            Conceptualization
            Data curation
            Formal analysis
            Funding acquisition
            Investigation
            Methodology
            Project administration
            Resources
            Software
            Supervision
            Validation
            Visualization
            Writing – original draft
            Writing – review & editing
        }
    !endsub

    !startsub COAR_Accessibility_Specification
        "Scholarly_Publication_Accessibility_Specification" <|-- "COAR_Accessibility_Specification_v_1_0"
    !endsub
    !startsub COAR_Accessibility_Specification
        "COAR_Accessibility_Specification_v_1_0" <|-- "Open_Access_COAR_Accessibility_Specification_v_1_0"
    !endsub
    !startsub COAR_Accessibility_Specification
        "COAR_Accessibility_Specification_v_1_0" <|-- "Restricted_Access_COAR_Accessibility_Specification_v_1_0"
    !endsub
    !startsub COAR_Accessibility_Specification
        "COAR_Accessibility_Specification_v_1_0" <|-- "Embargoed_Access_COAR_Accessibility_Specification_v_1_0"
    !endsub
    !startsub COAR_Accessibility_Specification
        "COAR_Accessibility_Specification_v_1_0" <|-- "Metadata_Only_Access_COAR_Accessibility_Specification_v_1_0"
    !endsub
    "Contribution" <|-- "Editorship"
    "Contribution" <|-- "Publishership"
    !startsub CRediT
        "Contribution_Statement" <|-- "CRediT_Contribution_Statement"
    !endsub
    !startsub Journal
        "Journal" o-- "0..* predecessors" "Journal"
    !endsub
    !startsub Journal
        "Journal" o--  "0..* publishers" "Agent"
    !endsub
    "Editorship" --> "editor" "Agent"
    note on link #ddeedd: editor == contributor
    "Publishership" --> "publisher" "Agent"
    note on link #ddeedd: publisher == contributor
    !startsub CRediT
        "CRediT_Contribution_Statement" ..> "roleType" "CRediT_Role_Type"
    !endsub
    !startsub CRediT
        "CRediT_Contribution_Statement" ..> "degreeOfContribution" "CRediT_Degree_of_Contribution"
    !endsub
    note right of CRediT_Role_Type #ddeedd: The CRediT is currently not expressed as Linked Open Data. \nWe hope it will be in the future. We estimate it will be more \nstraightforward for it to be exposed as a list of terms (perhaps \na SKOS concept scheme), rather than a class hierarchy. \nThis justifies our choice to model it as an enumeration rather \nthan a class hierarchy in our model.
@enduml